# xmcd
#
# Track frame offsets:
#	150
#	13027
#	24466
#	36625
#	54209
#	66809
#	82386
#	92737
#	106256
#	118536
#	128897
#	143092
#
# Disc length: 2053 seconds
#
# Revision: 1
# Processed by: cddbd v1.4PL0 Copyright (c) Steve Scherf et al.
# Submitted via: audiograbber 1.81.03
#
DISCID=a208030c
DTITLE=Various Countrry - Classic Country
DYEAR=1900
DGENRE=Country
TTITLE0=Bill Anderson - Still
TTITLE1=The Kendall`s - Heaven`s Just A Sin Away
TTITLE2=Johnny Lee - Hey Bartender
TTITLE3=Deborah Allen - Baby I Lied
TTITLE4=Bill Anderson - PO Fours
TTITLE5=Holly Dunn - Daddy`s Hands
TTITLE6=Dave Dudley - Six Days On The Road
TTITLE7=Deborah Allen - I`ve Been Wrong Before
TTITLE8=Bill Anderson - Tips Of My Fingers
TTITLE9=Faron Young - Hello Walls
TTITLE10=Holly Dunn - Love Someone Like Me
TTITLE11=Bill Anderson - Wild Weekend
EXTD=
EXTT0=
EXTT1=
EXTT2=
EXTT3=
EXTT4=
EXTT5=
EXTT6=
EXTT7=
EXTT8=
EXTT9=
EXTT10=
EXTT11=
PLAYORDER=
